<svg width="200" height="56" viewBox="0 0 200 56" fill="none" xmlns="http://www.w3.org/2000/svg">
<g clip-path="url(#clip0_1_3)">
<path d="M50 50H10.4282L2 41.5718V2H41.5718L50 10.4282V50ZM12.2812 45.5241H45.5241V12.2812L39.7188 6.47594H6.47594V39.7188L12.2812 45.5241Z" fill="url(#paint0_linear_1_3)"/>
<path d="M13.96 30.436V19.528H10.72V16.072H14.032V10.24H18.028V16.072H23.536V19.528H18.028V29.14L19.432 30.544H23.536V34H17.524L13.96 30.436Z" fill="url(#paint1_linear_1_3)"/>
<path d="M21.98 37.436V26.636L25.508 23.072H34.976L38.54 26.672V29.624H34.472V27.968L33.032 26.564H27.488L26.048 27.968V36.104L27.488 37.508H33.032L34.472 36.104V34.448H38.54V37.4L34.976 41H25.508L21.98 37.436Z" fill="url(#paint2_linear_1_3)"/>
<path d="M60.6 20.98H56.4V19H67.12V20.98H62.92V33H60.6V20.98ZM68.9234 19H78.6834V20.98H71.2434V24.98H78.1034V26.94H71.2434V31.02H78.6834V33H68.9234V19ZM80.6766 30.74V21.26L82.9366 19H89.4966L91.7166 21.22V23.06H89.3966V22.04L88.3366 21H84.1366L82.9966 22.12V29.88L84.1366 31H88.3366L89.3966 29.96V28.94H91.7166V30.78L89.4966 33H82.9366L80.6766 30.74ZM93.8258 19H96.1458V25.02H102.506V19H104.826V33H102.506V27.02H96.1458V33H93.8258V19ZM112.688 30.74V21.26L114.948 19H121.508L123.728 21.22V23.06H121.408V22.04L120.348 21H116.148L115.008 22.12V29.88L116.148 31H120.348L121.408 29.96V28.94H123.728V30.78L121.508 33H114.948L112.688 30.74ZM125.638 30.74V21.26L127.898 19H134.818L137.078 21.26V30.74L134.818 33H127.898L125.638 30.74ZM133.618 31L134.758 29.88V22.12L133.618 21H129.098L127.958 22.12V29.88L129.098 31H133.618ZM139.685 19H141.805L148.405 29.18H148.445V19H150.665V33H148.545L141.945 22.84H141.905V33H139.685V19ZM153.474 19H163.234V20.98H155.794V24.98H162.654V26.94H155.794V31.02H163.234V33H153.474V19ZM165.227 30.74V21.26L167.487 19H174.047L176.267 21.22V23.06H173.947V22.04L172.887 21H168.687L167.547 22.12V29.88L168.687 31H172.887L173.947 29.96V28.94H176.267V30.78L174.047 33H167.487L165.227 30.74ZM181.479 20.98H177.279V19H187.999V20.98H183.799V33H181.479V20.98ZM191.885 19H194.085L199.145 33H196.785L195.585 29.68H190.365L189.165 33H186.805L191.885 19ZM195.045 27.74L192.985 21.82H192.945L190.925 27.74H195.045Z" fill="white"/>
</g>
<defs>
<linearGradient id="paint0_linear_1_3" x1="3.04933" y1="9.95919" x2="54.7991" y2="10.9191" gradientUnits="userSpaceOnUse">
<stop stop-color="#10E0DA"/>
<stop offset="1" stop-color="#899AFF"/>
</linearGradient>
<linearGradient id="paint1_linear_1_3" x1="28.5" y1="-2" x2="28.5" y2="38" gradientUnits="userSpaceOnUse">
<stop stop-color="#10E0DA"/>
<stop offset="1" stop-color="#899AFF"/>
</linearGradient>
<linearGradient id="paint2_linear_1_3" x1="38.5" y1="5" x2="38.5" y2="45" gradientUnits="userSpaceOnUse">
<stop stop-color="#10E0DA"/>
<stop offset="1" stop-color="#899AFF"/>
</linearGradient>
<clipPath id="clip0_1_3">
<rect width="200" height="56" fill="white"/>
</clipPath>
</defs>
</svg>
